<svg width="24" height="24" viewBox="0 0 24 24" fill="none" xmlns="http://www.w3.org/2000/svg">
<g clip-path="url(#clip0_55_2)">
<path d="M0 11.9999C0 18.6274 5.37258 23.9999 12 23.9999C18.6274 23.9999 24 18.6274 24 11.9999H0Z" fill="url(#paint0_linear_55_2)"/>
<path d="M24 12C24 5.37258 18.6274 0 12 0C5.37258 0 0 5.37258 0 12H24Z" fill="#7CC0FF"/>
<path d="M7.20667 19.8436C6.36421 19.8436 5.64521 19.5459 5.04967 18.9503C4.45414 18.3548 4.15637 17.6358 4.15637 16.7933C4.15637 15.9509 4.45414 15.2319 5.04967 14.6363C5.64521 14.0408 6.36421 13.743 7.20667 13.743H8.51394V10.257H7.20667C6.36421 10.257 5.64521 9.9592 5.04967 9.36367C4.45414 8.76813 4.15637 8.04914 4.15637 7.20667C4.15637 6.36421 4.45414 5.64521 5.04967 5.04967C5.64521 4.45414 6.36421 4.15637 7.20667 4.15637C8.04914 4.15637 8.76813 4.45414 9.36367 5.04967C9.9592 5.64521 10.257 6.36421 10.257 7.20667V8.51394H13.743V7.20667C13.743 6.36421 14.0408 5.64521 14.6363 5.04967C15.2319 4.45414 15.9509 4.15637 16.7933 4.15637C17.6358 4.15637 18.3548 4.45414 18.9503 5.04967C19.5459 5.64521 19.8436 6.36421 19.8436 7.20667C19.8436 8.04914 19.5459 8.76813 18.9503 9.36367C18.3548 9.9592 17.6358 10.257 16.7933 10.257H15.4861V13.743H16.7933C17.6358 13.743 18.3548 14.0408 18.9503 14.6363C19.5459 15.2319 19.8436 15.9509 19.8436 16.7933C19.8436 17.6358 19.5459 18.3548 18.9503 18.9503C18.3548 19.5459 17.6358 19.8436 16.7933 19.8436C15.9509 19.8436 15.2319 19.5459 14.6363 18.9503C14.0408 18.3548 13.743 17.6358 13.743 16.7933V15.4861H10.257V16.7933C10.257 17.6358 9.9592 18.3548 9.36367 18.9503C8.76813 19.5459 8.04914 19.8436 7.20667 19.8436ZM7.20667 18.1006C7.5698 18.1006 7.87846 17.9735 8.13266 17.7193C8.38685 17.4651 8.51394 17.1565 8.51394 16.7933V15.4861H7.20667C6.84354 15.4861 6.53488 15.6132 6.28069 15.8673C6.0265 16.1215 5.8994 16.4302 5.8994 16.7933C5.8994 17.1565 6.0265 17.4651 6.28069 17.7193C6.53488 17.9735 6.84354 18.1006 7.20667 18.1006ZM16.7933 18.1006C17.1565 18.1006 17.4651 17.9735 17.7193 17.7193C17.9735 17.4651 18.1006 17.1565 18.1006 16.7933C18.1006 16.4302 17.9735 16.1215 17.7193 15.8673C17.4651 15.6132 17.1565 15.4861 16.7933 15.4861H15.4861V16.7933C15.4861 17.1565 15.6132 17.4651 15.8673 17.7193C16.1215 17.9735 16.4302 18.1006 16.7933 18.1006ZM10.257 13.743H13.743V10.257H10.257V13.743ZM7.20667 8.51394H8.51394V7.20667C8.51394 6.84354 8.38685 6.53488 8.13266 6.28069C7.87846 6.0265 7.5698 5.8994 7.20667 5.8994C6.84354 5.8994 6.53488 6.0265 6.28069 6.28069C6.0265 6.53488 5.8994 6.84354 5.8994 7.20667C5.8994 7.5698 6.0265 7.87846 6.28069 8.13266C6.53488 8.38685 6.84354 8.51394 7.20667 8.51394ZM15.4861 8.51394H16.7933C17.1565 8.51394 17.4651 8.38685 17.7193 8.13266C17.9735 7.87846 18.1006 7.5698 18.1006 7.20667C18.1006 6.84354 17.9735 6.53488 17.7193 6.28069C17.4651 6.0265 17.1565 5.8994 16.7933 5.8994C16.4302 5.8994 16.1215 6.0265 15.8673 6.28069C15.6132 6.53488 15.4861 6.84354 15.4861 7.20667V8.51394Z" fill="white"/>
</g>
<defs>
<linearGradient id="paint0_linear_55_2" x1="12" y1="11.9999" x2="12" y2="23.9999" gradientUnits="userSpaceOnUse">
<stop stop-color="#4B99DC"/>
<stop offset="1" stop-color="#85BEEE"/>
</linearGradient>
<clipPath id="clip0_55_2">
<rect width="24" height="24" fill="white"/>
</clipPath>
</defs>
</svg>
