<?xml version="1.0" standalone="no"?><!DOCTYPE svg PUBLIC "-//W3C//DTD SVG 1.1//EN" "http://www.w3.org/Graphics/SVG/1.1/DTD/svg11.dtd"><svg t="1699855480776" class="icon" viewBox="0 0 1024 1024" version="1.1" xmlns="http://www.w3.org/2000/svg" p-id="8648" xmlns:xlink="http://www.w3.org/1999/xlink" width="200" height="200"><path d="M1010.57 174.036c0 26.864-0.442 48.642-4.864 48.642H16.304S6.576 200.9 6.576 174.036v-6.406c0-26.866 21.776-48.64 48.642-48.64h906.712c26.864 0 48.64 21.776 48.64 48.64v6.406z" fill="#80CFF4" p-id="8649"></path><path d="M908.086 321.98m-36.48 0a36.48 36.48 0 1 0 72.96 0 36.48 36.48 0 1 0-72.96 0Z" fill="#36B8F2" p-id="8650"></path><path d="M911.208 381.18c-4.136 0-8.27-0.592-12.278-1.76a43.516 43.516 0 0 1-26.126-20.978 43.474 43.474 0 0 1-3.636-33.308c5.414-18.56 22.688-31.524 42.004-31.524 4.14 0 8.274 0.594 12.278 1.762a43.474 43.474 0 0 1 26.126 20.976 43.468 43.468 0 0 1 3.64 33.304c-5.416 18.562-22.688 31.528-42.008 31.528z m-0.036-72.978c-12.876 0-24.382 8.644-27.996 21.018a28.982 28.982 0 0 0 2.426 22.206 28.976 28.976 0 0 0 17.414 13.984c2.68 0.78 5.43 1.178 8.192 1.178 12.876 0 24.386-8.646 28-21.024 2.18-7.48 1.32-15.366-2.426-22.202a29.002 29.002 0 0 0-17.414-13.984 29.252 29.252 0 0 0-8.196-1.176z" p-id="8651"></path><path d="M915.126 764.45a7.214 7.214 0 0 1-3.68 0.46l-60.266-8.042a7.3 7.3 0 0 1-6.266-8.2 7.306 7.306 0 0 1 8.196-6.266l60.27 8.04a7.3 7.3 0 1 1 1.746 14.008z" fill="#E81F1F" p-id="8652"></path><path d="M880.972 790.558a7.232 7.232 0 0 1-3.68 0.464 7.304 7.304 0 0 1-6.266-8.2l8.042-60.27a7.294 7.294 0 1 1 14.462 1.934l-8.04 60.262a7.28 7.28 0 0 1-4.518 5.81z" fill="#E81F1F" p-id="8653"></path><path d="M970.442 753.652c-7.376 0-13.376-6-13.376-13.372 0-7.378 6-13.378 13.376-13.378 7.372 0 13.376 6 13.376 13.378-0.002 7.372-6.006 13.372-13.376 13.372z m0-19.452a6.084 6.084 0 0 0-6.082 6.082 6.084 6.084 0 0 0 6.082 6.078 6.084 6.084 0 0 0 6.078-6.078 6.084 6.084 0 0 0-6.078-6.082z" fill="#F18D00" p-id="8654"></path><path d="M119.786 842.216m-19.76 0a19.76 19.76 0 1 0 39.52 0 19.76 19.76 0 1 0-39.52 0Z" fill="#58B530" p-id="8655"></path><path d="M82.086 829.184a4.828 4.828 0 0 1-3.268-1.262l-19.668-17.864a4.86 4.86 0 1 1 6.54-7.2l19.668 17.86a4.868 4.868 0 0 1-3.272 8.466z" fill="#36B8F2" p-id="8656"></path><path d="M63.324 830.086a4.864 4.864 0 0 1-3.6-8.134l17.864-19.668a4.864 4.864 0 0 1 7.202 6.54l-17.864 19.672a4.86 4.86 0 0 1-3.602 1.59z" fill="#36B8F2" p-id="8657"></path><path d="M744.774 896.356c0-52.832 42.828-95.664 95.66-95.664s95.66 42.828 95.66 95.66" fill="#80CFF4" p-id="8658"></path><path d="M961.488 918.242H62.512c-33.526 0-60.8-27.274-60.8-60.8V166.558c0-33.524 27.276-60.802 60.8-60.802h898.976c33.524 0 60.8 27.278 60.8 60.802v116.92a12.16 12.16 0 0 1-24.32 0v-116.92c0-20.114-16.368-36.48-36.48-36.48H62.512c-20.114 0-36.48 16.366-36.48 36.48V857.44c0 20.118 16.366 36.48 36.48 36.48h898.976c20.114 0 36.48-16.364 36.48-36.48V351.576a12.16 12.16 0 1 1 24.32 0v505.866c0.002 33.526-27.276 60.8-60.8 60.8z" p-id="8659"></path><path d="M65.718 176.468m-17.024 0a17.024 17.024 0 1 0 34.048 0 17.024 17.024 0 1 0-34.048 0Z" fill="#FF6464" p-id="8660"></path><path d="M115.576 176.468m-17.024 0a17.024 17.024 0 1 0 34.048 0 17.024 17.024 0 1 0-34.048 0Z" fill="#FFE182" p-id="8661"></path><path d="M168.472 176.468m-17.024 0a17.024 17.024 0 1 0 34.048 0 17.024 17.024 0 1 0-34.048 0Z" fill="#58B530" p-id="8662"></path><path d="M964.36 188.628h-25.536a12.164 12.164 0 0 1-12.16-12.16 12.164 12.164 0 0 1 12.16-12.162h25.536a12.162 12.162 0 0 1 0 24.322zM896.872 188.628h-29.184a12.164 12.164 0 0 1-12.16-12.16 12.164 12.164 0 0 1 12.16-12.162h29.184a12.16 12.16 0 0 1 0 24.322zM806.886 188.628H384.316a12.164 12.164 0 0 1-12.16-12.16 12.164 12.164 0 0 1 12.16-12.162h422.57a12.16 12.16 0 0 1 0 24.322zM324.124 188.628h-21.89a12.162 12.162 0 0 1 0-24.322h21.89a12.16 12.16 0 0 1 0 24.322zM258.458 188.628h-28.576a12.166 12.166 0 0 1-12.162-12.16 12.164 12.164 0 0 1 12.162-12.162h28.576a12.162 12.162 0 0 1 0 24.322z" fill="#FFFFFF" p-id="8663"></path><path d="M241.254 454.956c-1.806 8.744-4.346 14.516-7.624 17.314-3.28 2.802-9.288 4.206-18.028 4.206-8.172 0-13.874-1.33-17.098-3.99-3.234-2.658-6.082-8.5-8.552-17.53L159.6 346.94a44.188 44.188 0 0 1-1.424-5.986 31.234 31.234 0 0 1-0.428-4.844c0-5.792 1.876-10.588 5.628-14.392 3.75-3.798 8.43-5.702 14.036-5.702 5.224 0 9.524 1.594 12.898 4.774 3.37 3.186 5.77 7.908 7.196 14.178l21.518 91.346 17.528-88.352c1.71-8.454 4.298-14.224 7.766-17.314 3.464-3.086 9.142-4.63 17.03-4.63 8.074 0 13.824 1.522 17.244 4.56 3.42 3.042 6.08 8.834 7.98 17.384l18.668 88.352 21.52-92.2c1.424-5.792 3.822-10.304 7.196-13.536 3.37-3.228 7.386-4.844 12.042-4.844 6.08 0 10.804 1.666 14.176 4.988 3.374 3.328 5.06 7.888 5.06 13.68 0 1.332-0.144 2.85-0.426 4.56-0.286 1.71-0.81 3.992-1.57 6.842l-30.64 109.158c-2.47 8.836-5.296 14.634-8.478 17.386-3.182 2.754-8.812 4.13-16.886 4.13-8.076 0-13.776-1.45-17.1-4.346-3.328-2.894-5.986-8.622-7.98-17.174l-21.092-91.914-19.808 91.912zM464.556 454.956c-1.808 8.744-4.346 14.516-7.626 17.314-3.278 2.802-9.288 4.206-18.026 4.206-8.172 0-13.872-1.33-17.1-3.99-3.232-2.658-6.08-8.5-8.55-17.53L382.9 346.94a44.188 44.188 0 0 1-1.424-5.986 31.234 31.234 0 0 1-0.428-4.844c0-5.792 1.876-10.588 5.626-14.392 3.75-3.798 8.43-5.702 14.038-5.702 5.222 0 9.524 1.594 12.896 4.774 3.372 3.186 5.77 7.908 7.196 14.178l21.52 91.346 17.528-88.352c1.71-8.454 4.3-14.224 7.766-17.314 3.468-3.086 9.144-4.63 17.03-4.63 8.074 0 13.824 1.522 17.242 4.56 3.42 3.042 6.08 8.834 7.98 17.384l18.666 88.352 21.52-92.2c1.426-5.792 3.824-10.304 7.2-13.536 3.372-3.228 7.386-4.844 12.042-4.844 6.078 0 10.8 1.666 14.18 4.988 3.372 3.328 5.054 7.888 5.054 13.68 0 1.332-0.144 2.85-0.426 4.56-0.29 1.71-0.808 3.992-1.57 6.842l-30.64 109.158c-2.468 8.836-5.296 14.634-8.476 17.386-3.184 2.754-8.812 4.13-16.886 4.13s-13.778-1.45-17.098-4.346c-3.326-2.894-5.988-8.622-7.98-17.174l-21.092-91.914-19.808 91.912zM687.86 454.956c-1.804 8.744-4.344 14.516-7.626 17.314-3.278 2.802-9.286 4.206-18.028 4.206-8.168 0-13.872-1.33-17.098-3.99-3.23-2.658-6.082-8.5-8.554-17.53l-30.348-108.016a43.622 43.622 0 0 1-1.426-5.986 31.256 31.256 0 0 1-0.43-4.844c0-5.792 1.876-10.588 5.628-14.392 3.754-3.798 8.43-5.702 14.032-5.702 5.226 0 9.528 1.594 12.902 4.774 3.372 3.186 5.77 7.908 7.196 14.178l21.52 91.346 17.524-88.352c1.714-8.454 4.3-14.224 7.77-17.314 3.468-3.086 9.144-4.63 17.028-4.63 8.074 0 13.824 1.522 17.242 4.56 3.422 3.042 6.082 8.834 7.984 17.384l18.668 88.352 21.516-92.2c1.426-5.792 3.824-10.304 7.196-13.536 3.376-3.228 7.386-4.844 12.042-4.844 6.078 0 10.804 1.666 14.18 4.988 3.372 3.328 5.058 7.888 5.058 13.68 0 1.332-0.148 2.85-0.43 4.56-0.282 1.71-0.808 3.992-1.57 6.842L779.2 454.96c-2.472 8.836-5.3 14.634-8.48 17.386-3.18 2.754-8.808 4.13-16.882 4.13s-13.774-1.45-17.102-4.346c-3.324-2.894-5.984-8.622-7.976-17.174l-21.09-91.914-19.81 91.914z" fill="#F18D00" p-id="8664"></path><path d="M344.188 574.512H149.624a12.16 12.16 0 1 1 0-24.32h194.564c6.716 0 12.16 5.442 12.16 12.16s-5.444 12.16-12.16 12.16zM402.556 643.422H149.624a12.162 12.162 0 0 1 0-24.32h252.934c6.716 0 12.162 5.446 12.162 12.16s-5.448 12.16-12.164 12.16zM525.882 643.422h-77.824a12.162 12.162 0 0 1 0-24.32h77.824a12.16 12.16 0 1 1 0 24.32z" p-id="8665"></path><path d="M760.07 712.872H149.624a12.16 12.16 0 1 1 0-24.32h610.448c6.714 0 12.156 5.442 12.156 12.16s-5.442 12.16-12.158 12.16z" p-id="8666"></path><path d="M604.418 782.046H149.624a12.16 12.16 0 1 1 0-24.32h454.794a12.162 12.162 0 0 1 0 24.32z" p-id="8667"></path><path d="M971.656 708.008a7.296 7.296 0 0 1-7.296-7.296v-54.86a7.296 7.296 0 0 1 14.592 0v54.86a7.292 7.292 0 0 1-7.296 7.296z" p-id="8668"></path><path d="M971.656 619.102a7.296 7.296 0 0 1-7.296-7.296v-97.282a7.296 7.296 0 0 1 14.592 0v97.282a7.292 7.292 0 0 1-7.296 7.296z" p-id="8669"></path></svg>